<svg width="32" height="32" viewBox="0 0 32 32" fill="none" xmlns="http://www.w3.org/2000/svg">
<g id="Black and White Collection 12">
<path id="Vector" d="M32 8C32 3.58172 28.4183 0 24 0H8C3.58172 0 0 3.58172 0 8V24C0 28.4183 3.58172 32 8 32H24C28.4183 32 32 28.4183 32 24V8Z" fill="white"/>
<path id="Vector_2" d="M24.8741 21.4905C24.7288 21.2592 24.5388 21.0592 24.3153 20.9021C24.0918 20.7451 23.8392 20.6342 23.5724 20.5758C22.5513 20.3384 21.6658 19.7064 21.1093 18.818C20.5528 17.9297 20.3705 16.8571 20.6024 15.8348C20.6915 15.4397 20.6619 15.027 20.5173 14.6486C20.3726 14.2703 20.1194 13.9431 19.7895 13.7081C19.4595 13.4732 19.0674 13.341 18.6625 13.3282C18.2577 13.3153 17.8581 13.4224 17.5139 13.6359C17.1696 13.8495 16.8962 14.1599 16.7279 14.5284C16.5596 14.8968 16.5038 15.3068 16.5677 15.7067C16.6316 16.1067 16.8123 16.4789 17.087 16.7766C17.3618 17.0742 17.7183 17.2841 18.1119 17.3797C18.6211 17.4946 19.1027 17.7088 19.5289 18.0102C19.9552 18.3115 20.3177 18.694 20.5959 19.1357C20.874 19.5774 21.0623 20.0697 21.1498 20.5843C21.2373 21.0988 21.2224 21.6257 21.106 22.1345C21.037 22.4625 21.0493 22.8025 21.1418 23.1246C21.2343 23.4468 21.4042 23.7414 21.6367 23.9829C21.8691 24.2244 22.1571 24.4053 22.4756 24.51C22.794 24.6147 23.1332 24.6398 23.4636 24.5834C23.794 24.5269 24.1056 24.3905 24.3712 24.186C24.6368 23.9815 24.8483 23.7152 24.9874 23.4103C25.1265 23.1053 25.1889 22.7709 25.1691 22.4363C25.1494 22.1017 25.0481 21.777 24.8741 21.4905Z" fill="#DD2590"/>
<path id="Vector_3" d="M12.2366 19.2021C12.2366 19.2062 12.2388 19.2101 12.2425 19.2121C12.6007 19.406 13.0083 19.4891 13.4139 19.4509C13.8217 19.4125 14.2087 19.2531 14.5253 18.9933C14.8419 18.7333 15.0737 18.3848 15.1907 17.9923C15.3079 17.5998 15.305 17.1812 15.1826 16.7903C15.0274 16.2919 14.9721 15.7678 15.0199 15.2479C15.0677 14.7281 15.2176 14.2228 15.4611 13.761C15.7046 13.2993 16.0368 12.8901 16.4387 12.557C16.8406 12.2238 17.3043 11.9733 17.8032 11.8197C18.1902 11.6986 18.5326 11.4656 18.7874 11.1502C19.0423 10.8349 19.1982 10.4511 19.2355 10.0474C19.2728 9.64361 19.1898 9.23782 18.997 8.88113C18.8042 8.5244 18.5102 8.23267 18.1521 8.04265C17.7938 7.85264 17.3875 7.77279 16.984 7.81322C16.5805 7.85362 16.198 8.01245 15.8846 8.26975C15.5712 8.52702 15.3409 8.87126 15.2227 9.25912C15.1045 9.64698 15.1037 10.0611 15.2203 10.4495C15.5264 11.452 15.4229 12.5351 14.9324 13.4615C14.4419 14.3879 13.6044 15.0823 12.6031 15.3927C12.2078 15.5073 11.8561 15.7379 11.5934 16.0547C11.3307 16.3715 11.1691 16.7599 11.1296 17.1695C11.0901 17.5792 11.1745 17.9912 11.3719 18.3524C11.5681 18.7115 11.8671 19.0038 12.2304 19.1919C12.2342 19.1939 12.2366 19.1978 12.2366 19.2021Z" fill="#DD2590"/>
<path id="Vector_4" d="M17.5259 18.8732C17.2526 18.8828 16.984 18.9468 16.7358 19.0616C16.4875 19.1763 16.2647 19.3393 16.0803 19.5412C15.3648 20.3065 14.3754 20.7574 13.3284 20.7953C12.2814 20.8331 11.262 20.4549 10.4931 19.7433C10.2944 19.5569 10.0607 19.4119 9.80545 19.3166C9.55024 19.2213 9.27862 19.1777 9.00639 19.1884C8.67131 19.2042 8.34517 19.3018 8.05648 19.4726C7.76777 19.6435 7.5253 19.8824 7.35018 20.1685C7.17504 20.4546 7.07262 20.7792 7.0518 21.114C7.03101 21.4488 7.09246 21.7836 7.23082 22.0892C7.36919 22.3948 7.58022 22.6619 7.84555 22.8672C8.11088 23.0724 8.4224 23.2096 8.75294 23.2668C9.08349 23.3239 9.42302 23.2994 9.74186 23.1951C10.0607 23.0909 10.3492 22.9102 10.5822 22.6688C10.9365 22.2852 11.3631 21.9752 11.8374 21.7566C12.3117 21.5381 12.8245 21.4153 13.3464 21.3952C13.8683 21.3752 14.389 21.4583 14.8787 21.6398C15.3684 21.8213 15.8175 22.0977 16.2002 22.453C16.4494 22.6782 16.7499 22.8388 17.0755 22.9209C17.4011 23.003 17.7419 23.0041 18.0681 22.9241C18.3942 22.844 18.6957 22.6853 18.9463 22.4618C19.1969 22.2382 19.3889 21.9567 19.5056 21.6417C19.6222 21.3268 19.6599 20.9881 19.6153 20.6553C19.5708 20.3224 19.4454 20.0056 19.25 19.7324C19.0547 19.4593 18.7954 19.2381 18.4949 19.0883C18.1943 18.9386 17.8616 18.8647 17.5259 18.8732Z" fill="#DD2590"/>
</g>
</svg>
